# Blender v2.93.1 OBJ File: ''
# www.blender.org
mtllib grass_2.mtl
o grass_2_Plane.002
v -1.746456 0.003611 -2.660497
v -0.546456 0.003611 -2.660497
v -0.546456 1.203611 -2.660497
v -1.146456 0.003611 -2.060497
v -1.146455 0.003611 -3.260497
v -1.146456 1.203611 -3.260498
v -3.247929 0.003610 -2.713487
v -2.374338 0.003610 -1.890785
v -3.247929 1.203610 -2.713487
v -3.222484 0.003611 -1.865341
v -2.399782 0.003610 -2.738931
v -2.399782 1.203610 -2.738931
v 0.027231 0.003610 -6.369022
v -0.449202 0.003610 -5.267654
v 0.027231 1.203610 -6.369021
v -0.761669 0.003611 -6.056553
v 0.339698 0.003610 -5.580122
v -0.761669 1.203610 -6.056553
v -4.011895 0.003610 1.140342
v -2.893123 0.003610 1.574334
v -4.011895 1.203609 1.140342
v -3.669505 0.003610 1.916724
v -3.235512 0.003610 0.797952
v -3.235512 1.203609 0.797952
v -4.386160 0.003612 -3.867890
v -3.384417 0.003611 -3.207201
v -4.386160 1.203611 -3.867890
v -4.215634 0.003611 -3.036674
v -3.554944 0.003612 -4.038417
v -3.554944 1.203611 -4.038417
v -3.313840 0.003611 -1.303403
v -2.894811 0.003610 -0.178941
v -3.313839 1.203610 -1.303403
v -3.666555 0.003611 -0.531657
v -2.542094 0.003611 -0.950686
v -2.542094 1.203610 -0.950687
v 1.178938 0.003611 -1.467160
v 1.755486 0.003611 -2.519582
v 1.755485 1.203610 -2.519581
v 0.941001 0.003611 -2.281644
v 1.993423 0.003611 -1.705096
v 0.941001 1.203610 -2.281643
v 2.440450 0.003611 2.037104
v 2.127539 0.003611 0.878620
v 2.127539 1.203610 0.878620
v 1.704752 0.003611 1.614318
v 2.863237 0.003611 1.301406
v 2.863237 1.203610 1.301407
v 4.819168 0.003611 -1.187724
v 4.506257 0.003611 -2.346208
v 4.506256 1.203610 -2.346208
v 4.083470 0.003611 -1.610510
v 5.241954 0.003611 -1.923421
v 5.241954 1.203610 -1.923421
v -0.832558 0.003610 -0.580891
v -1.768691 0.003611 -1.331659
v -1.768692 1.203609 -1.331658
v -1.676008 0.003610 -0.488208
v -0.925241 0.003611 -1.424342
v -0.925241 1.203609 -1.424341
v -1.746456 1.203611 -2.660497
v -1.146456 1.203611 -2.060497
v -2.374338 1.203610 -1.890785
v -3.222484 1.203610 -1.865341
v -0.449202 1.203609 -5.267654
v 0.339698 1.203610 -5.580122
v -2.893123 1.203609 1.574333
v -3.669505 1.203609 1.916723
v -3.384417 1.203610 -3.207201
v -4.215634 1.203610 -3.036675
v -2.894811 1.203610 -0.178941
v -3.666556 1.203610 -0.531657
v 1.178938 1.203610 -1.467159
v 1.993423 1.203610 -1.705096
v 2.440450 1.203609 2.037105
v 1.704752 1.203610 1.614318
v 4.819168 1.203610 -1.187724
v 4.083470 1.203610 -1.610511
v -0.832558 1.203609 -0.580890
v -1.676008 1.203609 -0.488207
vt 0.000100 0.000100
vt 0.999900 0.000100
vt 0.999900 0.999900
vt 0.000100 0.000100
vt 0.999900 0.000100
vt 0.999900 0.999900
vt 0.000100 0.000100
vt 0.999900 0.000100
vt 0.000100 0.999900
vt 0.000100 0.000100
vt 0.999900 0.000100
vt 0.999900 0.999900
vt 0.000100 0.000100
vt 0.999900 0.000100
vt 0.000100 0.999900
vt 0.000100 0.000100
vt 0.999900 0.000100
vt 0.000100 0.999900
vt 0.000100 0.000100
vt 0.999900 0.000100
vt 0.000100 0.999900
vt 0.000100 0.000100
vt 0.999900 0.000100
vt 0.999900 0.999900
vt 0.000100 0.000100
vt 0.999900 0.000100
vt 0.000100 0.999900
vt 0.000100 0.000100
vt 0.999900 0.000100
vt 0.999900 0.999900
vt 0.000100 0.000100
vt 0.999900 0.000100
vt 0.000100 0.999900
vt 0.000100 0.000100
vt 0.999900 0.000100
vt 0.999900 0.999900
vt 0.000100 0.000100
vt 0.999900 0.000100
vt 0.999900 0.999900
vt 0.000100 0.000100
vt 0.999900 0.000100
vt 0.000100 0.999900
vt 0.000100 0.000100
vt 0.999900 0.000100
vt 0.999900 0.999900
vt 0.000100 0.000100
vt 0.999900 0.000100
vt 0.999900 0.999900
vt 0.000100 0.000100
vt 0.999900 0.000100
vt 0.999900 0.999900
vt 0.000100 0.000100
vt 0.999900 0.000100
vt 0.999900 0.999900
vt 0.000100 0.000100
vt 0.999900 0.000100
vt 0.999900 0.999900
vt 0.000100 0.000100
vt 0.999900 0.000100
vt 0.999900 0.999900
vt 0.000100 0.999900
vt 0.000100 0.999900
vt 0.999900 0.999900
vt 0.000100 0.999900
vt 0.999900 0.999900
vt 0.999900 0.999900
vt 0.999900 0.999900
vt 0.000100 0.999900
vt 0.999900 0.999900
vt 0.000100 0.999900
vt 0.999900 0.999900
vt 0.000100 0.999900
vt 0.000100 0.999900
vt 0.999900 0.999900
vt 0.000100 0.999900
vt 0.000100 0.999900
vt 0.000100 0.999900
vt 0.000100 0.999900
vt 0.000100 0.999900
vt 0.000100 0.999900
vn 0.0000 -0.0000 1.0000
vn 1.0000 0.0000 0.0000
vn -0.6856 0.0000 0.7280
vn 0.7280 -0.0000 0.6856
vn -0.9178 0.0000 -0.3970
vn -0.3970 0.0000 0.9178
vn -0.3617 -0.0000 0.9323
vn 0.9323 -0.0000 0.3617
vn -0.5506 0.0000 0.8348
vn 0.8348 0.0000 0.5506
vn -0.9371 0.0000 0.3492
vn 0.3492 0.0000 0.9371
vn 0.8770 0.0000 0.4805
vn -0.4805 -0.0000 0.8770
vn 0.9654 0.0000 -0.2608
vn 0.2608 -0.0000 0.9654
vn 0.6256 0.0000 -0.7801
vn 0.7801 -0.0000 0.6256
usemtl tex2
s 1
f 1/1/1 2/2/1 3/3/1
f 4/4/2 5/5/2 6/6/2
f 7/7/3 8/8/3 9/9/3
f 10/10/4 11/11/4 12/12/4
f 13/13/5 14/14/5 15/15/5
f 16/16/6 17/17/6 18/18/6
f 19/19/7 20/20/7 21/21/7
f 22/22/8 23/23/8 24/24/8
f 25/25/9 26/26/9 27/27/9
f 28/28/10 29/29/10 30/30/10
f 31/31/11 32/32/11 33/33/11
f 34/34/12 35/35/12 36/36/12
f 37/37/13 38/38/13 39/39/13
f 40/40/14 41/41/14 42/42/14
f 43/43/15 44/44/15 45/45/15
f 46/46/16 47/47/16 48/48/16
f 49/49/15 50/50/15 51/51/15
f 52/52/16 53/53/16 54/54/16
f 55/55/17 56/56/17 57/57/17
f 58/58/18 59/59/18 60/60/18
f 61/61/1 1/1/1 3/3/1
f 62/62/2 4/4/2 6/6/2
f 8/8/3 63/63/3 9/9/3
f 64/64/4 10/10/4 12/12/4
f 14/14/5 65/65/5 15/15/5
f 17/17/6 66/66/6 18/18/6
f 20/20/7 67/67/7 21/21/7
f 68/68/8 22/22/8 24/24/8
f 26/26/9 69/69/9 27/27/9
f 70/70/10 28/28/10 30/30/10
f 32/32/11 71/71/11 33/33/11
f 72/72/12 34/34/12 36/36/12
f 73/73/13 37/37/13 39/39/13
f 41/41/14 74/74/14 42/42/14
f 75/75/15 43/43/15 45/45/15
f 76/76/16 46/46/16 48/48/16
f 77/77/15 49/49/15 51/51/15
f 78/78/16 52/52/16 54/54/16
f 79/79/17 55/55/17 57/57/17
f 80/80/18 58/58/18 60/60/18
