# Blender v2.93.1 OBJ File: ''
# www.blender.org
mtllib grass_1.mtl
o grass_1_Plane.001
v -5.103426 0.003610 -1.616012
v -3.903426 0.003610 -1.616012
v -3.903426 1.203610 -1.616013
v -4.503426 0.003610 -1.016012
v -4.503426 0.003610 -2.216013
v -4.503426 1.203610 -2.216012
v 0.120805 0.003610 0.066634
v 0.627331 0.003610 1.154491
v 0.120805 1.203610 0.066634
v -0.169860 0.003611 0.863825
v 0.917996 0.003610 0.357300
v 0.917996 1.203610 0.357300
v -0.464949 0.003611 -4.276920
v 0.332388 0.003610 -3.380117
v -0.464949 1.203611 -4.276920
v -0.514682 0.003610 -3.429850
v 0.382120 0.003611 -4.227188
v 0.382120 1.203611 -4.227188
v 0.802485 0.003611 -4.874243
v 1.998737 0.003611 -4.779472
v 0.802485 1.203610 -4.874244
v 1.353226 0.003611 -4.228732
v 1.447996 0.003611 -5.424984
v 1.447996 1.203610 -5.424984
v -4.890489 0.003611 -0.382394
v -4.471460 0.003611 0.742068
v -4.890489 1.203610 -0.382394
v -5.243205 0.003611 0.389351
v -4.118743 0.003611 -0.029678
v -4.118743 1.203610 -0.029678
v 4.391148 0.003611 0.926362
v 3.597642 0.003610 0.026169
v 3.597642 1.203610 0.026169
v 3.544298 0.003610 0.873018
v 4.444492 0.003610 0.079513
v 4.444492 1.203610 0.079513
v 1.318504 0.003610 4.354344
v 0.244816 0.003610 3.818441
v 0.244816 1.203609 3.818440
v 0.513709 0.003610 4.623236
v 1.049612 0.003611 3.549548
v 1.049612 1.203609 3.549548
v 2.308954 0.003612 -2.721366
v 2.885501 0.003611 -3.773788
v 2.885501 1.203611 -3.773788
v 2.071016 0.003612 -3.535850
v 3.123438 0.003611 -2.959304
v 2.071016 1.203611 -3.535851
v -1.740384 0.003611 0.828785
v -2.830042 0.003610 0.326148
v -2.830042 1.203610 0.326148
v -2.536532 0.003610 1.122296
v -2.033894 0.003610 0.032637
v -2.033894 1.203610 0.032637
v 6.657868 0.003611 -0.261407
v 5.463043 0.003610 -0.372726
v 5.463043 1.203610 -0.372725
v 6.004796 0.003610 0.280346
v 6.116116 0.003610 -0.914479
v 6.116116 1.203610 -0.914478
v 4.277915 0.003610 2.070269
v 3.338883 0.003610 2.817411
v 4.277914 1.203609 2.070269
v 4.181971 0.003610 2.913356
v 3.434828 0.003610 1.974326
v 3.434827 1.203609 1.974326
v 2.282146 0.003611 -0.177847
v 1.878720 0.003610 -1.308000
v 1.878720 1.203610 -1.307999
v 1.515357 0.003611 -0.541210
v 2.645510 0.003611 -0.944636
v 2.645510 1.203610 -0.944635
v -1.701225 0.003611 -4.057132
v -2.411933 0.003611 -5.024031
v -2.411933 1.203611 -5.024032
v -2.540028 0.003611 -4.185228
v -1.573129 0.003611 -4.895935
v -1.573129 1.203611 -4.895935
v 1.383234 0.003610 2.607289
v 0.200933 0.003610 2.401957
v 0.200932 1.203609 2.401957
v 0.689417 0.003610 3.095773
v 0.894750 0.003610 1.913471
v 0.894750 1.203609 1.913472
v -5.103426 1.203610 -1.616013
v -4.503426 1.203610 -1.016012
v 0.627331 1.203610 1.154491
v -0.169860 1.203610 0.863825
v 0.332388 1.203610 -3.380117
v -0.514682 1.203610 -3.429849
v 1.998737 1.203610 -4.779473
v 1.353226 1.203610 -4.228732
v -4.471460 1.203610 0.742068
v -5.243206 1.203610 0.389351
v 4.391148 1.203610 0.926363
v 3.544298 1.203610 0.873019
v 1.318504 1.203609 4.354344
v 0.513709 1.203609 4.623236
v 2.308953 1.203611 -2.721366
v 3.123438 1.203611 -2.959304
v -1.740384 1.203610 0.828785
v -2.536532 1.203609 1.122295
v 6.657868 1.203610 -0.261406
v 6.004796 1.203610 0.280347
v 3.338883 1.203609 2.817410
v 4.181971 1.203609 2.913355
v 2.282146 1.203610 -0.177845
v 1.515356 1.203610 -0.541209
v -1.701225 1.203611 -4.057132
v -2.540029 1.203611 -4.185228
v 1.383234 1.203609 2.607289
v 0.689417 1.203609 3.095774
v 2.961829 0.003610 3.402519
v 2.894065 0.003610 4.600606
v 2.961828 1.203609 3.402521
v 3.526990 0.003610 4.035444
v 2.328905 0.003610 3.967682
v 2.328905 1.203609 3.967683
v 2.894064 1.203609 4.600605
v 3.526989 1.203609 4.035443
v -6.467024 0.003610 -1.013324
v -7.453392 0.003610 -0.329890
v -6.467026 1.203609 -1.013324
v -6.618491 0.003610 -0.178423
v -7.301925 0.003610 -1.164789
v -7.301926 1.203609 -1.164789
v -7.453392 1.203609 -0.329891
v -6.618490 1.203609 -0.178424
vt 0.000100 0.000100
vt 0.999900 0.000100
vt 0.999900 0.999900
vt 0.000100 0.000100
vt 0.999900 0.000100
vt 0.999900 0.999900
vt 0.000100 0.000100
vt 0.999900 0.000100
vt 0.000100 0.999900
vt 0.000100 0.000100
vt 0.999900 0.000100
vt 0.999900 0.999900
vt 0.000100 0.000100
vt 0.999900 0.000100
vt 0.000100 0.999900
vt 0.000100 0.000100
vt 0.999900 0.000100
vt 0.999900 0.999900
vt 0.000100 0.000100
vt 0.999900 0.000100
vt 0.000100 0.999900
vt 0.000100 0.000100
vt 0.999900 0.000100
vt 0.999900 0.999900
vt 0.000100 0.000100
vt 0.999900 0.000100
vt 0.000100 0.999900
vt 0.000100 0.000100
vt 0.999900 0.000100
vt 0.999900 0.999900
vt 0.000100 0.000100
vt 0.999900 0.000100
vt 0.999900 0.999900
vt 0.000100 0.000100
vt 0.999900 0.000100
vt 0.999900 0.999900
vt 0.000100 0.000100
vt 0.999900 0.000100
vt 0.999900 0.999900
vt 0.000100 0.000100
vt 0.999900 0.000100
vt 0.999900 0.999900
vt 0.000100 0.000100
vt 0.999900 0.000100
vt 0.999900 0.999900
vt 0.000100 0.000100
vt 0.999900 0.000100
vt 0.000100 0.999900
vt 0.000100 0.000100
vt 0.999900 0.000100
vt 0.999900 0.999900
vt 0.000100 0.000100
vt 0.999900 0.000100
vt 0.999900 0.999900
vt 0.000100 0.000100
vt 0.999900 0.000100
vt 0.999900 0.999900
vt 0.000100 0.000100
vt 0.999900 0.000100
vt 0.999900 0.999900
vt 0.000100 0.000100
vt 0.999900 0.000100
vt 0.000100 0.999900
vt 0.000100 0.000100
vt 0.999900 0.000100
vt 0.999900 0.999900
vt 0.000100 0.000100
vt 0.999900 0.000100
vt 0.999900 0.999900
vt 0.000100 0.000100
vt 0.999900 0.000100
vt 0.999900 0.999900
vt 0.000100 0.000100
vt 0.999900 0.000100
vt 0.999900 0.999900
vt 0.000100 0.000100
vt 0.999900 0.000100
vt 0.999900 0.999900
vt 0.000100 0.000100
vt 0.999900 0.000100
vt 0.999900 0.999900
vt 0.000100 0.000100
vt 0.999900 0.000100
vt 0.999900 0.999900
vt 0.000100 0.999900
vt 0.000100 0.999900
vt 0.999900 0.999900
vt 0.000100 0.999900
vt 0.999900 0.999900
vt 0.000100 0.999900
vt 0.999900 0.999900
vt 0.000100 0.999900
vt 0.999900 0.999900
vt 0.000100 0.999900
vt 0.000100 0.999900
vt 0.000100 0.999900
vt 0.000100 0.999900
vt 0.000100 0.999900
vt 0.000100 0.999900
vt 0.999900 0.999900
vt 0.000100 0.999900
vt 0.000100 0.999900
vt 0.000100 0.999900
vt 0.000100 0.999900
vt 0.999900 0.999900
vt 0.000100 0.999900
vt 0.000100 0.999900
vt 0.000100 0.999900
vt 0.000100 0.999900
vt 0.000100 0.999900
vt 0.000100 0.999900
vt 0.000100 0.999900
vt 0.000100 0.000100
vt 0.999900 0.000100
vt 0.000100 0.999900
vt 0.000100 0.000100
vt 0.999900 0.000100
vt 0.999900 0.999900
vt 0.999900 0.999900
vt 0.000100 0.999900
vt 0.000100 0.000100
vt 0.999900 0.000100
vt 0.000100 0.999900
vt 0.000100 0.000100
vt 0.999900 0.000100
vt 0.999900 0.999900
vt 0.999900 0.999900
vt 0.000100 0.999900
vn 0.0000 0.0000 1.0000
vn 1.0000 0.0000 0.0000
vn -0.9065 -0.0000 0.4221
vn 0.4221 -0.0000 0.9065
vn -0.7473 0.0000 0.6644
vn 0.6644 -0.0000 0.7473
vn -0.0790 0.0000 0.9969
vn 0.9969 0.0000 0.0790
vn -0.9371 0.0000 0.3492
vn 0.3492 -0.0000 0.9371
vn 0.7502 0.0000 -0.6613
vn 0.6613 -0.0000 0.7502
vn 0.4466 -0.0000 -0.8947
vn 0.8947 -0.0000 0.4466
vn 0.8770 0.0000 0.4805
vn -0.4805 0.0000 0.8770
vn 0.4189 0.0000 -0.9080
vn 0.9080 0.0000 0.4189
vn 0.0928 0.0000 -0.9957
vn 0.9957 0.0000 0.0928
vn -0.6226 -0.0000 -0.7825
vn 0.7825 0.0000 -0.6226
vn 0.9418 0.0000 -0.3362
vn 0.3362 0.0000 0.9418
vn 0.8057 -0.0000 -0.5923
vn 0.5923 0.0000 0.8057
vn 0.1711 0.0000 -0.9853
vn 0.9853 -0.0000 0.1711
vn 0.5923 0.0000 0.8058
vn -0.9984 -0.0000 -0.0565
vn 0.0565 0.0000 -0.9984
vn -0.5695 -0.0000 -0.8220
vn 0.8220 -0.0000 -0.5695
usemtl tex1
s 1
f 1/1/1 2/2/1 3/3/1
f 4/4/2 5/5/2 6/6/2
f 7/7/3 8/8/3 9/9/3
f 10/10/4 11/11/4 12/12/4
f 13/13/5 14/14/5 15/15/5
f 16/16/6 17/17/6 18/18/6
f 19/19/7 20/20/7 21/21/7
f 22/22/8 23/23/8 24/24/8
f 25/25/9 26/26/9 27/27/9
f 28/28/10 29/29/10 30/30/10
f 31/31/11 32/32/11 33/33/11
f 34/34/12 35/35/12 36/36/12
f 37/37/13 38/38/13 39/39/13
f 40/40/14 41/41/14 42/42/14
f 43/43/15 44/44/15 45/45/15
f 46/46/16 47/47/16 48/48/16
f 49/49/17 50/50/17 51/51/17
f 52/52/18 53/53/18 54/54/18
f 55/55/19 56/56/19 57/57/19
f 58/58/20 59/59/20 60/60/20
f 61/61/21 62/62/21 63/63/21
f 64/64/22 65/65/22 66/66/22
f 67/67/23 68/68/23 69/69/23
f 70/70/24 71/71/24 72/72/24
f 73/73/25 74/74/25 75/75/25
f 76/76/26 77/77/26 78/78/26
f 79/79/27 80/80/27 81/81/27
f 82/82/28 83/83/28 84/84/28
f 85/85/1 1/1/1 3/3/1
f 86/86/2 4/4/2 6/6/2
f 8/8/3 87/87/3 9/9/3
f 88/88/4 10/10/4 12/12/4
f 14/14/5 89/89/5 15/15/5
f 90/90/6 16/16/6 18/18/6
f 20/20/7 91/91/7 21/21/7
f 92/92/8 22/22/8 24/24/8
f 26/26/9 93/93/9 27/27/9
f 94/94/10 28/28/10 30/30/10
f 95/95/11 31/31/11 33/33/11
f 96/96/12 34/34/12 36/36/12
f 97/97/13 37/37/13 39/39/13
f 98/98/14 40/40/14 42/42/14
f 99/99/15 43/43/15 45/45/15
f 47/47/16 100/100/16 48/48/16
f 101/101/17 49/49/17 51/51/17
f 102/102/18 52/52/18 54/54/18
f 103/103/19 55/55/19 57/57/19
f 104/104/20 58/58/20 60/60/20
f 62/62/21 105/105/21 63/63/21
f 106/106/22 64/64/22 66/66/22
f 107/107/23 67/67/23 69/69/23
f 108/108/24 70/70/24 72/72/24
f 109/109/25 73/73/25 75/75/25
f 110/110/29 76/76/26 78/78/26
f 111/111/27 79/79/27 81/81/27
f 112/112/28 82/82/28 84/84/28
f 113/113/30 114/114/30 115/115/30
f 116/116/31 117/117/31 118/118/31
f 114/114/30 119/119/30 115/115/30
f 120/120/31 116/116/31 118/118/31
f 121/121/32 122/122/32 123/123/32
f 124/124/33 125/125/33 126/126/33
f 122/122/32 127/127/32 123/123/32
f 128/128/33 124/124/33 126/126/33
