# Blender v2.93.1 OBJ File: ''
# www.blender.org
mtllib grass_3.mtl
o grass_3_Plane
v -0.868531 0.003610 2.734604
v -1.797695 0.003610 3.493980
v -0.868531 1.203609 2.734605
v -1.712801 0.003610 2.649710
v -0.953425 0.003609 3.578875
v -1.712801 1.203609 2.649710
v -6.197208 0.003610 -2.628957
v -5.331535 0.003611 -3.459986
v -5.331535 1.203610 -3.459986
v -5.348855 0.003610 -2.611635
v -6.179887 0.003611 -3.477308
v -6.179887 1.203610 -3.477308
v -3.915882 0.003610 3.891304
v -3.050211 0.003610 3.060274
v -3.050210 1.203609 3.060274
v -3.067530 0.003610 3.908625
v -3.898562 0.003610 3.042952
v -3.898561 1.203609 3.042952
v -1.600747 0.003610 5.442730
v -2.766738 0.003609 5.726394
v -1.600747 1.203609 5.442733
v -2.041912 0.003609 6.167558
v -2.325574 0.003610 5.001567
v -2.325574 1.203609 5.001567
v -1.797695 1.203609 3.493980
v -0.953425 1.203609 3.578875
v -6.197208 1.203610 -2.628956
v -5.348855 1.203610 -2.611634
v -3.915882 1.203609 3.891304
v -3.067530 1.203609 3.908624
v -2.766738 1.203608 5.726394
v -2.041912 1.203607 6.167558
v -6.163650 0.003610 1.415590
v -6.402225 0.003610 2.591636
v -6.163651 1.203609 1.415591
v -5.694914 0.003610 2.122900
v -6.870959 0.003610 1.884327
v -6.870960 1.203609 1.884328
v -6.402226 1.203609 2.591635
v -5.694914 1.203609 2.122900
v 5.267956 0.003610 -5.129248
v 4.109749 0.003610 -4.815307
v 5.267954 1.203609 -5.129249
v 4.845823 0.003610 -4.393174
v 4.531881 0.003610 -5.551380
v 4.531880 1.203609 -5.551380
v 4.109749 1.203609 -4.815309
v 4.845824 1.203609 -4.393175
v 6.739759 0.003610 1.898942
v 5.753392 0.003610 2.582375
v 6.739757 1.203609 1.898942
v 6.588292 0.003610 2.733842
v 5.904859 0.003610 1.747476
v 5.904857 1.203609 1.747477
v 5.753391 1.203609 2.582374
v 6.588293 1.203609 2.733841
v -4.091712 0.003610 -6.957176
v -5.290990 0.003610 -6.915550
v -4.091713 1.203609 -6.957178
v -4.670537 0.003610 -6.336724
v -4.712164 0.003610 -7.536001
v -4.712166 1.203609 -7.536001
v -5.290989 1.203609 -6.915552
v -4.670536 1.203609 -6.336724
v -1.048160 0.003610 -9.326126
v -2.103649 0.003610 -9.897040
v -1.048161 1.203609 -9.326128
v -1.861362 0.003610 -9.083838
v -1.290448 0.003610 -10.139327
v -1.290450 1.203609 -10.139328
v -2.103648 1.203609 -9.897041
v -1.861361 1.203609 -9.083838
v -9.751091 0.003610 -2.959779
v -10.806581 0.003610 -3.530693
v -9.751092 1.203609 -2.959780
v -10.564293 0.003610 -2.717491
v -9.993380 0.003610 -3.772980
v -9.993382 1.203609 -3.772980
v -10.806580 1.203609 -3.530694
v -10.564292 1.203609 -2.717490
v -9.090030 0.003610 7.229501
v -8.623105 0.003610 6.124068
v -9.090028 1.203609 7.229500
v -9.409284 0.003610 6.443323
v -8.303851 0.003610 6.910246
v -8.303851 1.203609 6.910244
v -8.623104 1.203609 6.124069
v -9.409285 1.203609 6.443324
v 2.812285 0.003610 7.537921
v 1.756796 0.003610 6.967007
v 2.812284 1.203609 7.537920
v 1.999084 0.003610 7.780209
v 2.569997 0.003610 6.724720
v 2.569995 1.203609 6.724720
v 1.756797 1.203609 6.967006
v 1.999084 1.203609 7.780210
v 10.567430 0.003610 -2.666961
v 9.375701 0.003610 -2.807605
v 10.567430 1.203609 -2.666962
v 9.901243 0.003610 -2.141418
v 10.041887 0.003610 -3.333147
v 10.041885 1.203609 -3.333147
v 9.375701 1.203609 -2.807606
v 9.901245 1.203609 -2.141417
v 3.625010 0.003610 -6.244543
v 2.569521 0.003610 -6.815457
v 3.625010 1.203609 -6.244545
v 2.811809 0.003610 -6.002255
v 3.382722 0.003610 -7.057744
v 3.382720 1.203609 -7.057745
v 2.569522 1.203609 -6.815458
v 2.811810 1.203609 -6.002254
vt 0.000100 0.000100
vt 0.999900 0.000100
vt 0.000100 0.999900
vt 0.000100 0.000100
vt 0.999900 0.000100
vt 0.000100 0.999900
vt 0.000100 0.000100
vt 0.999900 0.000100
vt 0.999900 0.999900
vt 0.000100 0.000100
vt 0.999900 0.000100
vt 0.999900 0.999900
vt 0.000100 0.000100
vt 0.999900 0.000100
vt 0.999900 0.999900
vt 0.000100 0.000100
vt 0.999900 0.000100
vt 0.999900 0.999900
vt 0.000100 0.000100
vt 0.999900 0.000100
vt 0.000100 0.999900
vt 0.000100 0.000100
vt 0.999900 0.000100
vt 0.999900 0.999900
vt 0.999900 0.999900
vt 0.999900 0.999900
vt 0.000100 0.999900
vt 0.000100 0.999900
vt 0.000100 0.999900
vt 0.000100 0.999900
vt 0.999900 0.999900
vt 0.000100 0.999900
vt 0.000100 0.000100
vt 0.999900 0.000100
vt 0.000100 0.999900
vt 0.000100 0.000100
vt 0.999900 0.000100
vt 0.999900 0.999900
vt 0.999900 0.999900
vt 0.000100 0.999900
vt 0.000100 0.000100
vt 0.999900 0.000100
vt 0.000100 0.999900
vt 0.000100 0.000100
vt 0.999900 0.000100
vt 0.999900 0.999900
vt 0.999900 0.999900
vt 0.000100 0.999900
vt 0.000100 0.000100
vt 0.999900 0.000100
vt 0.000100 0.999900
vt 0.000100 0.000100
vt 0.999900 0.000100
vt 0.999900 0.999900
vt 0.999900 0.999900
vt 0.000100 0.999900
vt 0.000100 0.000100
vt 0.999900 0.000100
vt 0.000100 0.999900
vt 0.000100 0.000100
vt 0.999900 0.000100
vt 0.999900 0.999900
vt 0.999900 0.999900
vt 0.000100 0.999900
vt 0.000100 0.000100
vt 0.999900 0.000100
vt 0.000100 0.999900
vt 0.000100 0.000100
vt 0.999900 0.000100
vt 0.999900 0.999900
vt 0.999900 0.999900
vt 0.000100 0.999900
vt 0.000100 0.000100
vt 0.999900 0.000100
vt 0.000100 0.999900
vt 0.000100 0.000100
vt 0.999900 0.000100
vt 0.999900 0.999900
vt 0.999900 0.999900
vt 0.000100 0.999900
vt 0.000100 0.000100
vt 0.999900 0.000100
vt 0.000100 0.999900
vt 0.000100 0.000100
vt 0.999900 0.000100
vt 0.999900 0.999900
vt 0.999900 0.999900
vt 0.000100 0.999900
vt 0.000100 0.000100
vt 0.999900 0.000100
vt 0.000100 0.999900
vt 0.000100 0.000100
vt 0.999900 0.000100
vt 0.999900 0.999900
vt 0.999900 0.999900
vt 0.000100 0.999900
vt 0.000100 0.000100
vt 0.999900 0.000100
vt 0.000100 0.999900
vt 0.000100 0.000100
vt 0.999900 0.000100
vt 0.999900 0.999900
vt 0.999900 0.999900
vt 0.000100 0.999900
vt 0.000100 0.000100
vt 0.999900 0.000100
vt 0.000100 0.999900
vt 0.000100 0.000100
vt 0.999900 0.000100
vt 0.999900 0.999900
vt 0.999900 0.999900
vt 0.000100 0.999900
vn -0.6328 0.0000 -0.7743
vn -0.7743 0.0000 0.6328
vn 0.6925 0.0000 0.7214
vn 0.7214 0.0000 -0.6925
vn -0.2364 0.0000 -0.9717
vn 0.9717 0.0000 -0.2364
vn -0.9800 -0.0000 -0.1988
vn 0.1988 0.0000 -0.9800
vn -0.2616 -0.0000 -0.9652
vn 0.9652 0.0000 -0.2616
vn -0.5695 -0.0000 -0.8220
vn 0.8220 0.0000 -0.5695
vn -0.0347 -0.0000 -0.9994
vn 0.9994 0.0000 -0.0347
vn 0.4758 -0.0000 -0.8796
vn 0.8796 0.0000 0.4758
vn 0.9212 -0.0000 0.3891
vn -0.3891 0.0000 0.9212
vn 0.1172 -0.0000 -0.9931
vn 0.9931 -0.0000 0.1172
usemtl tex3
s 1
f 1/1/1 2/2/1 3/3/1
f 4/4/2 5/5/2 6/6/2
f 7/7/3 8/8/3 9/9/3
f 10/10/4 11/11/4 12/12/4
f 13/13/3 14/14/3 15/15/3
f 16/16/4 17/17/4 18/18/4
f 19/19/5 20/20/5 21/21/5
f 22/22/6 23/23/6 24/24/6
f 2/2/1 25/25/1 3/3/1
f 5/5/2 26/26/2 6/6/2
f 27/27/3 7/7/3 9/9/3
f 28/28/4 10/10/4 12/12/4
f 29/29/3 13/13/3 15/15/3
f 30/30/4 16/16/4 18/18/4
f 20/20/5 31/31/5 21/21/5
f 32/32/6 22/22/6 24/24/6
f 33/33/7 34/34/7 35/35/7
f 36/36/8 37/37/8 38/38/8
f 34/34/7 39/39/7 35/35/7
f 40/40/8 36/36/8 38/38/8
f 41/41/9 42/42/9 43/43/9
f 44/44/10 45/45/10 46/46/10
f 42/42/9 47/47/9 43/43/9
f 48/48/10 44/44/10 46/46/10
f 49/49/11 50/50/11 51/51/11
f 52/52/12 53/53/12 54/54/12
f 50/50/11 55/55/11 51/51/11
f 56/56/12 52/52/12 54/54/12
f 57/57/13 58/58/13 59/59/13
f 60/60/14 61/61/14 62/62/14
f 58/58/13 63/63/13 59/59/13
f 64/64/14 60/60/14 62/62/14
f 65/65/15 66/66/15 67/67/15
f 68/68/16 69/69/16 70/70/16
f 66/66/15 71/71/15 67/67/15
f 72/72/16 68/68/16 70/70/16
f 73/73/15 74/74/15 75/75/15
f 76/76/16 77/77/16 78/78/16
f 74/74/15 79/79/15 75/75/15
f 80/80/16 76/76/16 78/78/16
f 81/81/17 82/82/17 83/83/17
f 84/84/18 85/85/18 86/86/18
f 82/82/17 87/87/17 83/83/17
f 88/88/18 84/84/18 86/86/18
f 89/89/15 90/90/15 91/91/15
f 92/92/16 93/93/16 94/94/16
f 90/90/15 95/95/15 91/91/15
f 96/96/16 92/92/16 94/94/16
f 97/97/19 98/98/19 99/99/19
f 100/100/20 101/101/20 102/102/20
f 98/98/19 103/103/19 99/99/19
f 104/104/20 100/100/20 102/102/20
f 105/105/15 106/106/15 107/107/15
f 108/108/16 109/109/16 110/110/16
f 106/106/15 111/111/15 107/107/15
f 112/112/16 108/108/16 110/110/16
